<svg width="34" height="34" fill="none" xmlns="http://www.w3.org/2000/svg">
  <path
    d="M17.031 34c-2.096-.01-7.44-.502-11.903-4.878C.39 24.487 0 18.65 0 16.977v-.014c.027-2.096.57-7.436 4.986-11.89C9.448.587 14.844.03 16.956 0a.82.82 0 0 1 .606.242.838.838 0 0 1 .252.6v3.646a.839.839 0 0 1-.838.841c-1.159 0-5.182.276-8.351 3.546a11.839 11.839 0 0 0-3.286 8.09c.008 1.378.32 4.89 3.085 7.895 3.196 3.48 7.401 3.784 8.613 3.793 1.17 0 5.226-.273 8.406-3.588 2.927-3.042 3.245-6.662 3.25-8.077V.912a.839.839 0 0 1 .838-.84h3.628a.838.838 0 0 1 .839.84v16.12c0 1.666-.371 7.457-5.05 12.076-4.467 4.408-9.825 4.89-11.917 4.892zM1.681 16.977c0 1.524.364 6.777 4.618 10.947 4.03 3.947 8.849 4.392 10.732 4.398 1.47 0 6.597-.322 10.732-4.406 4.215-4.162 4.547-9.382 4.549-10.883V1.757H30.36v15.24c0 1.619-.375 5.756-3.708 9.237-3.641 3.791-8.287 4.097-9.624 4.097-1.393-.011-6.193-.358-9.846-4.335-3.15-3.43-3.515-7.458-3.526-9.02 0-1.63.39-5.779 3.756-9.26 3.064-3.163 6.83-3.874 8.715-4.02V1.723c-2.096.168-6.403.966-9.952 4.54C2.2 10.27 1.707 15.081 1.68 16.976z"
    fill="#F6F6F9"
  ></path>
  {' '}
  <path
    d="M17.03 26.56A9.56 9.56 0 1 1 26.59 17a9.579 9.579 0 0 1-9.56 9.561zm0-17.454a7.887 7.887 0 1 0 7.886 7.887 7.897 7.897 0 0 0-7.887-7.887z"
    fill="#F6F6F9"
  ></path>
</svg>
